<svg width="18" height="15" viewBox="0 0 18 15" fill="none" xmlns="http://www.w3.org/2000/svg">
<path d="M8.99947 14.3529C8.69096 14.3529 8.39647 14.2565 8.14756 14.074C6.45777 12.8379 2.41909 9.76298 1.40591 7.90014C0.08072 5.46571 0.876536 2.33916 3.17634 0.930843C3.91957 0.476324 4.76096 0.235291 5.61638 0.235291C6.89599 0.235291 8.09848 0.75179 8.99947 1.67116C9.90046 0.75179 11.103 0.235291 12.3826 0.235291C13.238 0.235291 14.0794 0.476324 14.8226 0.930843C17.1224 2.33916 17.9182 5.46571 16.5965 7.90014C15.5834 9.76298 11.5447 12.8379 9.85489 14.074C9.60247 14.2565 9.30798 14.3529 8.99947 14.3529ZM5.61638 1.26829C4.95729 1.26829 4.30871 1.45423 3.73376 1.80545C1.89322 2.93486 1.26217 5.44849 2.33144 7.41119C3.271 9.13974 7.49899 12.3145 8.77159 13.2442C8.90481 13.3406 9.09062 13.3406 9.22384 13.2442C10.4964 12.311 14.7244 9.1363 15.664 7.41119C16.7333 5.44849 16.1022 2.93142 14.2617 1.80545C13.6902 1.45423 13.0417 1.26829 12.3826 1.26829C11.2292 1.26829 10.1494 1.81922 9.42017 2.77647L8.99947 3.33429L8.57877 2.77647C7.84957 1.81922 6.77329 1.26829 5.61638 1.26829Z" fill="#333333"/>
</svg>
